<?xml version="1.0" encoding="UTF-8"?>
<svg width="40px" height="40px" viewBox="0 0 40 40" version="1.1" xmlns="http://www.w3.org/2000/svg" xmlns:xlink="http://www.w3.org/1999/xlink">
    <title>Alarm_Off</title>
    <g id="Page-1" stroke="none" stroke-width="1" fill="none" fill-rule="evenodd">
        <g id="Alarm_Off">
            <circle id="Oval-Copy-2" fill="#FFFFFF" opacity="0.2" cx="20" cy="20" r="20"></circle>
            <path d="M25.8464677,8.74647833 C25.6792355,8.4407027 25.38033,8.18974487 24.9927034,8.07123701 C24.2170982,7.83390442 23.3714315,8.2090737 23.1080848,8.90712937 L23,9.19325931 C23.5358471,9.22748083 24.0699339,9.32570928 24.5966272,9.48699404 C25.0391764,9.6222958 25.4510956,9.79340341 25.8334412,10 L25.921106,9.7674204 C26.0527794,9.41823413 26.0140519,9.05225397 25.8464677,8.74647833 L25.8464677,8.74647833 Z M26.9567117,24.4635875 L28.6259888,19.4627586 C29.2487125,17.5966688 29.0694436,15.6406746 28.2693379,13.9966559 C27.6730327,12.7737274 26.7464952,11.7213864 25.5546397,11.0002312 C25.1451516,10.7497287 24.7032064,10.5426415 24.2288041,10.3785854 C23.6642013,10.1830244 23.0916728,10.0639205 22.5172573,10.022042 C19.3919388,9.77000268 16.3590853,11.6979498 15.3053612,14.8545886 L13.8262979,19.286408 L9,23.3647576 L28.1814017,30 L26.9567117,24.4635875 Z M21,27.5719536 C19.3094312,30.0520263 17.0343612,29.1581293 17,26 L21,27.5719536 Z" id="Fill-1-Copy" fill="#101B41"></path>
        </g>
    </g>
</svg>