<?xml version="1.0" encoding="UTF-8"?>
<svg width="30px" height="30px" viewBox="0 0 30 30" version="1.1" xmlns="http://www.w3.org/2000/svg" xmlns:xlink="http://www.w3.org/1999/xlink">
    <title>Cloudy_Off</title>
    <g id="Page-1" stroke="none" stroke-width="1" fill="none" fill-rule="evenodd" stroke-linecap="round" stroke-linejoin="round">
        <g id="Cloudy_Off" transform="translate(1.000000, 1.000000)" stroke="#6D7A9A" stroke-width="2">
            <line x1="10.8088235" y1="2.22044605e-14" x2="10.8088235" y2="1.20098039" id="Stroke-710"></line>
            <line x1="2.40196078" y1="2.40196078" x2="3.60294118" y2="3.60294118" id="Stroke-711"></line>
            <line x1="19.2156863" y1="2.40196078" x2="18.0147059" y2="3.60294118" id="Stroke-712"></line>
            <line x1="2.22044605e-14" y1="10.8088235" x2="1.20098039" y2="10.8088235" id="Stroke-713"></line>
            <path d="M25.5226348,18.8133578 C26.6239338,16.2804902 24.5618505,13.4605882 21.771973,13.8064706 C20.8183946,11.332451 18.4236397,9.57301471 15.6133456,9.57301471 C12.158125,9.57301471 9.32741422,12.2271814 9.03557598,15.6067402 C5.98868873,15.8937745 3.60354167,18.4770833 3.60354167,21.5996324 C3.60354167,24.9167402 6.29133578,27.622549 9.60844363,27.622549 L22.8192279,27.622549 C25.4721936,27.622549 27.6231495,25.4547794 27.6231495,22.8006127 C27.6231495,21.1516667 26.7908701,19.6792647 25.5226348,18.8133578 L25.5226348,18.8133578 Z" id="Stroke-714"></path>
            <path d="M16.1967819,6.0330049 C14.8757034,4.5449902 12.9541348,3.60342157 10.8091838,3.60342157 C6.8291348,3.60342157 3.60330147,6.83045588 3.60330147,10.8093039 C3.60330147,11.6355784 3.74381618,12.4234216 4.00442892,13.1620245" id="Stroke-715"></path>
        </g>
    </g>
</svg>