<?xml version="1.0" encoding="UTF-8"?>
<svg width="29px" height="29px" viewBox="0 0 29 29" version="1.1" xmlns="http://www.w3.org/2000/svg" xmlns:xlink="http://www.w3.org/1999/xlink">
    <title>sunny_On</title>
    <g id="Page-1" stroke="none" stroke-width="1" fill="none" fill-rule="evenodd" stroke-linecap="round" stroke-linejoin="round">
        <g id="sunny_On" transform="translate(1.000000, 1.000000)" stroke="#C9D2F2" stroke-width="2">
            <path d="M21.6176471,13.2107843 C21.6176471,8.56779412 17.8537745,4.80392157 13.2107843,4.80392157 C8.56779412,4.80392157 4.80392157,8.56779412 4.80392157,13.2107843 C4.80392157,17.8537745 8.56779412,21.6176471 13.2107843,21.6176471 C17.8537745,21.6176471 21.6176471,17.8537745 21.6176471,13.2107843 L21.6176471,13.2107843 Z" id="Stroke-6379"></path>
            <line x1="13.2107843" y1="24.0196078" x2="13.2107843" y2="26.4215686" id="Stroke-6380"></line>
            <line x1="24.0196078" y1="13.2107843" x2="26.4215686" y2="13.2107843" id="Stroke-6381"></line>
            <line x1="13.2107843" y1="2.40196078" x2="13.2107843" y2="4.48530102e-14" id="Stroke-6382"></line>
            <line x1="2.40196078" y1="13.2107843" x2="4.48530102e-14" y2="13.2107843" id="Stroke-6383"></line>
            <line x1="5.56858578" y1="20.8541838" x2="3.86919853" y2="22.5535711" id="Stroke-6384"></line>
            <line x1="20.8541838" y1="20.8541838" x2="22.5523701" y2="22.5523701" id="Stroke-6385"></line>
            <line x1="20.8546642" y1="5.56858578" x2="22.5528505" y2="3.87039951" id="Stroke-6386"></line>
            <line x1="5.56798529" y1="5.56858578" x2="3.86979902" y2="3.87039951" id="Stroke-6387"></line>
        </g>
    </g>
</svg>