<?xml version="1.0" encoding="UTF-8"?>
<svg width="30px" height="30px" viewBox="0 0 30 30" version="1.1" xmlns="http://www.w3.org/2000/svg" xmlns:xlink="http://www.w3.org/1999/xlink">
    <title>SunnyRainy_Off</title>
    <g id="Page-1" stroke="none" stroke-width="1" fill="none" fill-rule="evenodd" stroke-linecap="round" stroke-linejoin="round">
        <g id="SunnyRainy_Off" transform="translate(1.000000, 1.000000)" stroke="#6D7A9A" stroke-width="2">
            <line x1="2.0700098" y1="2.0700098" x2="3.00197059" y2="3.00197059" id="Stroke-3832"></line>
            <line x1="14.7437157" y1="2.0700098" x2="13.8117549" y2="3.00197059" id="Stroke-3833"></line>
            <path d="M25.807027,22.9781176 C26.9131299,22.099 27.6229093,20.7406912 27.6229093,19.2154461 C27.6229093,17.5665 26.7894289,16.1109118 25.5235956,15.2462059 C26.6236936,12.7121373 24.5616103,9.89223529 21.7729338,10.2393186 C20.8181544,7.76409804 18.4233995,6.00466176 15.6131054,6.00466176 C12.1578848,6.00466176 9.32597304,8.65882843 9.03533578,12.0395882 C5.98844853,12.3266225 3.60330147,14.8919167 3.60330147,18.0144657 C3.60330147,20.2134608 4.78506618,22.1374314 6.54690441,23.1834853" id="Stroke-3834"></path>
            <line x1="5.40441176" y1="27.622549" x2="11.4093137" y2="21.6176471" id="Stroke-3835"></line>
            <line x1="11.4093137" y1="27.622549" x2="17.4142157" y2="21.6176471" id="Stroke-3836"></line>
            <line x1="17.4142157" y1="27.622549" x2="23.4191176" y2="21.6176471" id="Stroke-3837"></line>
            <path d="M4.41216176,11.0762819 C3.90054412,10.3124583 3.60270098,9.39490931 3.60270098,8.40650245 C3.60270098,5.75353676 5.75365686,3.60258088 8.40662255,3.60258088 C9.56076471,3.60258088 10.6188284,4.00971324 11.4463039,4.68826716" id="Stroke-3838"></path>
            <line x1="2.22044605e-14" y1="7.20588235" x2="1.20098039" y2="7.20588235" id="Stroke-3839"></line>
            <line x1="8.40686275" y1="2.22044605e-14" x2="8.40686275" y2="1.20098039" id="Stroke-3840"></line>
        </g>
    </g>
</svg>